<svg xmlns:dc="http://purl.org/dc/elements/1.1/" xmlns:cc="http://creativecommons.org/ns#" xmlns:rdf="http://www.w3.org/1999/02/22-rdf-syntax-ns#" xmlns:svg="http://www.w3.org/2000/svg" xmlns="http://www.w3.org/2000/svg" xmlns:sodipodi="http://sodipodi.sourceforge.net/DTD/sodipodi-0.dtd" xmlns:inkscape="http://www.inkscape.org/namespaces/inkscape" width="100" height="100" id="svg3259" version="1.1" inkscape:version="0.48.4 r9939" sodipodi:docname="texting.svg" viewBox="5.0 -10.0 100 135.0">
  <defs id="defs3261"/>
  <sodipodi:namedview id="base" pagecolor="#ffffff" bordercolor="#666666" borderopacity="1.0" inkscape:pageopacity="0.0" inkscape:pageshadow="2" inkscape:zoom="2.529247" inkscape:cx="161.15662" inkscape:cy="-10.50767" inkscape:document-units="px" inkscape:current-layer="layer1" showgrid="false" inkscape:window-width="1366" inkscape:window-height="721" inkscape:window-x="-4" inkscape:window-y="-4" inkscape:window-maximized="1"/>
  <metadata id="metadata3264">
    <rdf:RDF>
      <cc:Work rdf:about="">
        <dc:format>image/svg+xml</dc:format>
        <dc:type rdf:resource="http://purl.org/dc/dcmitype/StillImage"/>
        <dc:title/>
      </cc:Work>
    </rdf:RDF>
  </metadata>
  <g inkscape:label="Layer 1" inkscape:groupmode="layer" id="layer1" transform="translate(0,-952.36218)">
    <path style="font-size:medium;font-style:normal;font-variant:normal;font-weight:normal;font-stretch:normal;text-indent:0;text-align:start;text-decoration:none;line-height:normal;letter-spacing:normal;word-spacing:normal;text-transform:none;direction:ltr;block-progression:tb;writing-mode:lr-tb;text-anchor:start;baseline-shift:baseline;color:#000000;fill:#000000;fill-opacity:1;fill-rule:nonzero;stroke:none;stroke-width:4.56285238;marker:none;visibility:visible;display:inline;overflow:visible;enable-background:accumulate;font-family:Sans;-inkscape-font-specification:Sans" d="m 18.515645,957.39514 a 2.2816543,2.2816543 0 0 0 -2.03125,2.2813 l 0,85.37496 a 2.2816543,2.2816543 0 0 0 2.28125,2.2812 l 52.25,0 a 2.2816543,2.2816543 0 0 0 2.28125,-2.2812 l 0,-20.5313 a 2.2816543,2.2816543 0 1 0 -4.5625,0 l 0,18.25 -47.6875,0 0,-80.81246 47.6875,0 0,18.2813 a 2.2816543,2.2816543 0 1 0 4.5625,0 l 0,-20.5625 a 2.2816543,2.2816543 0 0 0 -2.28125,-2.2813 l -52.25,0 a 2.2816543,2.2816543 0 0 0 -0.25,0 z m 15.75,7.5 a 2.2838705,2.2838705 0 1 0 0.21875,4.5625 l 14.9375,0 a 2.2816543,2.2816543 0 1 0 0,-4.5625 l -14.9375,0 a 2.2816543,2.2816543 0 0 0 -0.21875,0 z m 20.5,0 a 2.2838705,2.2838705 0 1 0 0.21875,4.5625 l 0.3125,0 a 2.2816543,2.2816543 0 1 0 0,-4.5625 l -0.3125,0 a 2.2816543,2.2816543 0 0 0 -0.21875,0 z m -28.125,7.9063 a 2.2816543,2.2816543 0 0 0 -2.0625,2.2812 l 0,54.59376 a 2.2816543,2.2816543 0 0 0 2.28125,2.2812 l 36.0625,0 a 2.2816543,2.2816543 0 0 0 2.28125,-2.2812 l 0,-5.0625 a 2.2816543,2.2816543 0 1 0 -4.5625,0 l 0,2.7812 -31.5,0 0,-50.03116 31.5,0 0,2.8437 a 2.2816543,2.2816543 0 1 0 4.5625,0 l 0,-5.125 a 2.2816543,2.2816543 0 0 0 -2.28125,-2.2812 l -36.0625,0 a 2.2816543,2.2816543 0 0 0 -0.21875,0 z m 15.53125,12.9375 a 2.2816543,2.2816543 0 0 0 -2.0625,2.2812 l 0,28.40626 a 2.2816543,2.2816543 0 0 0 2.28125,2.2812 l 29.96875,0 7.46875,5.8125 a 2.2816543,2.2816543 0 0 0 3.6875,-1.7812 l 0,-34.71876 a 2.2816543,2.2816543 0 0 0 -2.28125,-2.2812 l -38.84375,0 a 2.2816543,2.2816543 0 0 0 -0.21875,0 z m 2.5,4.5625 34.28125,0 0,27.74996 -4.375,-3.4063 a 2.2816543,2.2816543 0 0 0 -1.40625,-0.5 l -28.5,0 0,-23.84366 z m 4.84375,2.9375 a 2.2838705,2.2838705 0 1 0 0.21875,4.5625 l 24.15625,0 a 2.2816543,2.2816543 0 1 0 0,-4.5625 l -24.15625,0 a 2.2816543,2.2816543 0 0 0 -0.21875,0 z m 0,6.7187 a 2.2838705,2.2838705 0 1 0 0.21875,4.56246 l 24.15625,0 a 2.2816543,2.2816543 0 1 0 0,-4.56246 l -24.15625,0 a 2.2816543,2.2816543 0 0 0 -0.21875,0 z m 0,6.71876 a 2.2839204,2.2839204 0 0 0 0.21875,4.5625 l 14.5,0 a 2.2816543,2.2816543 0 1 0 0,-4.5625 l -14.5,0 a 2.2816543,2.2816543 0 0 0 -0.21875,0 z m -7.46875,27 c -2.01376,0 -3.6875,1.7049 -3.6875,3.7187 0,2.0138 1.67374,3.6875 3.6875,3.6875 l 5.65625,0 c 2.01376,0 3.71875,-1.6737 3.71875,-3.6875 0,-2.0138 -1.70499,-3.7187 -3.71875,-3.7187 l -5.65625,0 z" id="rect3773" inkscape:connector-curvature="0"/>
  </g>
<text x="0" y="117.5" font-size="5.0" font-weight="bold" font-family="Helvetica Neue, Helvetica, Arial-Unicode, Arial, Sans-serif" fill="#000000">Created by baabullah hasan</text><text x="0" y="122.5" font-size="5.0" font-weight="bold" font-family="Helvetica Neue, Helvetica, Arial-Unicode, Arial, Sans-serif" fill="#000000">from the Noun Project</text></svg>